<mxfile host="app.diagrams.net" modified="2024-05-07T20:43:31.782Z" agent="Mozilla/5.0 (Windows NT 10.0; Win64; x64) AppleWebKit/537.36 (KHTML, like Gecko) Chrome/124.0.0.0 Safari/537.36" etag="1080qTXMfqSlTvhLcyPj" version="24.3.1" type="github">
  <diagram id="R2lEEEUBdFMjLlhIrx00" name="Page-1">
    <mxGraphModel dx="1434" dy="738" grid="1" gridSize="10" guides="1" tooltips="1" connect="1" arrows="1" fold="1" page="1" pageScale="1" pageWidth="850" pageHeight="1100" math="0" shadow="0" extFonts="Permanent Marker^https://fonts.googleapis.com/css?family=Permanent+Marker">
      <root>
        <mxCell id="0" />
        <mxCell id="1" parent="0" />
        <mxCell id="nOUeEoo9Qma1lNyCIXqd-9" value="Cliente " style="swimlane;fontStyle=0;childLayout=stackLayout;horizontal=1;startSize=26;horizontalStack=0;resizeParent=1;resizeParentMax=0;resizeLast=0;collapsible=1;marginBottom=0;align=center;fontSize=14;" vertex="1" parent="1">
          <mxGeometry y="200" width="160" height="206" as="geometry" />
        </mxCell>
        <mxCell id="nOUeEoo9Qma1lNyCIXqd-76" value="id" style="text;strokeColor=none;fillColor=none;spacingLeft=4;spacingRight=4;overflow=hidden;rotatable=0;points=[[0,0.5],[1,0.5]];portConstraint=eastwest;fontSize=12;whiteSpace=wrap;html=1;" vertex="1" parent="nOUeEoo9Qma1lNyCIXqd-9">
          <mxGeometry y="26" width="160" height="30" as="geometry" />
        </mxCell>
        <mxCell id="nOUeEoo9Qma1lNyCIXqd-10" value="nombre" style="text;strokeColor=none;fillColor=none;spacingLeft=4;spacingRight=4;overflow=hidden;rotatable=0;points=[[0,0.5],[1,0.5]];portConstraint=eastwest;fontSize=12;whiteSpace=wrap;html=1;" vertex="1" parent="nOUeEoo9Qma1lNyCIXqd-9">
          <mxGeometry y="56" width="160" height="30" as="geometry" />
        </mxCell>
        <mxCell id="nOUeEoo9Qma1lNyCIXqd-11" value="direccion" style="text;strokeColor=none;fillColor=none;spacingLeft=4;spacingRight=4;overflow=hidden;rotatable=0;points=[[0,0.5],[1,0.5]];portConstraint=eastwest;fontSize=12;whiteSpace=wrap;html=1;" vertex="1" parent="nOUeEoo9Qma1lNyCIXqd-9">
          <mxGeometry y="86" width="160" height="30" as="geometry" />
        </mxCell>
        <mxCell id="nOUeEoo9Qma1lNyCIXqd-12" value="telefono" style="text;strokeColor=none;fillColor=none;spacingLeft=4;spacingRight=4;overflow=hidden;rotatable=0;points=[[0,0.5],[1,0.5]];portConstraint=eastwest;fontSize=12;whiteSpace=wrap;html=1;" vertex="1" parent="nOUeEoo9Qma1lNyCIXqd-9">
          <mxGeometry y="116" width="160" height="30" as="geometry" />
        </mxCell>
        <mxCell id="nOUeEoo9Qma1lNyCIXqd-13" value="rut" style="text;strokeColor=none;fillColor=none;spacingLeft=4;spacingRight=4;overflow=hidden;rotatable=0;points=[[0,0.5],[1,0.5]];portConstraint=eastwest;fontSize=12;whiteSpace=wrap;html=1;" vertex="1" parent="nOUeEoo9Qma1lNyCIXqd-9">
          <mxGeometry y="146" width="160" height="30" as="geometry" />
        </mxCell>
        <mxCell id="nOUeEoo9Qma1lNyCIXqd-14" value="contacto" style="text;strokeColor=none;fillColor=none;spacingLeft=4;spacingRight=4;overflow=hidden;rotatable=0;points=[[0,0.5],[1,0.5]];portConstraint=eastwest;fontSize=12;whiteSpace=wrap;html=1;" vertex="1" parent="nOUeEoo9Qma1lNyCIXqd-9">
          <mxGeometry y="176" width="160" height="30" as="geometry" />
        </mxCell>
        <mxCell id="nOUeEoo9Qma1lNyCIXqd-15" value="TerminalDescarga" style="swimlane;fontStyle=0;childLayout=stackLayout;horizontal=1;startSize=26;horizontalStack=0;resizeParent=1;resizeParentMax=0;resizeLast=0;collapsible=1;marginBottom=0;align=center;fontSize=14;" vertex="1" parent="1">
          <mxGeometry x="560" y="561" width="160" height="176" as="geometry" />
        </mxCell>
        <mxCell id="nOUeEoo9Qma1lNyCIXqd-87" value="id" style="text;strokeColor=none;fillColor=none;spacingLeft=4;spacingRight=4;overflow=hidden;rotatable=0;points=[[0,0.5],[1,0.5]];portConstraint=eastwest;fontSize=12;whiteSpace=wrap;html=1;" vertex="1" parent="nOUeEoo9Qma1lNyCIXqd-15">
          <mxGeometry y="26" width="160" height="30" as="geometry" />
        </mxCell>
        <mxCell id="nOUeEoo9Qma1lNyCIXqd-16" value="nombre" style="text;strokeColor=none;fillColor=none;spacingLeft=4;spacingRight=4;overflow=hidden;rotatable=0;points=[[0,0.5],[1,0.5]];portConstraint=eastwest;fontSize=12;whiteSpace=wrap;html=1;" vertex="1" parent="nOUeEoo9Qma1lNyCIXqd-15">
          <mxGeometry y="56" width="160" height="30" as="geometry" />
        </mxCell>
        <mxCell id="nOUeEoo9Qma1lNyCIXqd-17" value="direccion" style="text;strokeColor=none;fillColor=none;spacingLeft=4;spacingRight=4;overflow=hidden;rotatable=0;points=[[0,0.5],[1,0.5]];portConstraint=eastwest;fontSize=12;whiteSpace=wrap;html=1;" vertex="1" parent="nOUeEoo9Qma1lNyCIXqd-15">
          <mxGeometry y="86" width="160" height="30" as="geometry" />
        </mxCell>
        <mxCell id="nOUeEoo9Qma1lNyCIXqd-18" value="contacto" style="text;strokeColor=none;fillColor=none;spacingLeft=4;spacingRight=4;overflow=hidden;rotatable=0;points=[[0,0.5],[1,0.5]];portConstraint=eastwest;fontSize=12;whiteSpace=wrap;html=1;" vertex="1" parent="nOUeEoo9Qma1lNyCIXqd-15">
          <mxGeometry y="116" width="160" height="30" as="geometry" />
        </mxCell>
        <mxCell id="nOUeEoo9Qma1lNyCIXqd-32" value="telefono" style="text;strokeColor=none;fillColor=none;spacingLeft=4;spacingRight=4;overflow=hidden;rotatable=0;points=[[0,0.5],[1,0.5]];portConstraint=eastwest;fontSize=12;whiteSpace=wrap;html=1;" vertex="1" parent="nOUeEoo9Qma1lNyCIXqd-15">
          <mxGeometry y="146" width="160" height="30" as="geometry" />
        </mxCell>
        <mxCell id="nOUeEoo9Qma1lNyCIXqd-23" value="TerminalCarga" style="swimlane;fontStyle=0;childLayout=stackLayout;horizontal=1;startSize=26;horizontalStack=0;resizeParent=1;resizeParentMax=0;resizeLast=0;collapsible=1;marginBottom=0;align=center;fontSize=14;" vertex="1" parent="1">
          <mxGeometry x="240" y="561" width="240" height="176" as="geometry" />
        </mxCell>
        <mxCell id="nOUeEoo9Qma1lNyCIXqd-83" value="id" style="text;strokeColor=none;fillColor=none;spacingLeft=4;spacingRight=4;overflow=hidden;rotatable=0;points=[[0,0.5],[1,0.5]];portConstraint=eastwest;fontSize=12;whiteSpace=wrap;html=1;" vertex="1" parent="nOUeEoo9Qma1lNyCIXqd-23">
          <mxGeometry y="26" width="240" height="30" as="geometry" />
        </mxCell>
        <mxCell id="nOUeEoo9Qma1lNyCIXqd-24" value="nombre" style="text;strokeColor=none;fillColor=none;spacingLeft=4;spacingRight=4;overflow=hidden;rotatable=0;points=[[0,0.5],[1,0.5]];portConstraint=eastwest;fontSize=12;whiteSpace=wrap;html=1;" vertex="1" parent="nOUeEoo9Qma1lNyCIXqd-23">
          <mxGeometry y="56" width="240" height="30" as="geometry" />
        </mxCell>
        <mxCell id="nOUeEoo9Qma1lNyCIXqd-25" value="direccion" style="text;strokeColor=none;fillColor=none;spacingLeft=4;spacingRight=4;overflow=hidden;rotatable=0;points=[[0,0.5],[1,0.5]];portConstraint=eastwest;fontSize=12;whiteSpace=wrap;html=1;" vertex="1" parent="nOUeEoo9Qma1lNyCIXqd-23">
          <mxGeometry y="86" width="240" height="30" as="geometry" />
        </mxCell>
        <mxCell id="nOUeEoo9Qma1lNyCIXqd-26" value="contacto" style="text;strokeColor=none;fillColor=none;spacingLeft=4;spacingRight=4;overflow=hidden;rotatable=0;points=[[0,0.5],[1,0.5]];portConstraint=eastwest;fontSize=12;whiteSpace=wrap;html=1;" vertex="1" parent="nOUeEoo9Qma1lNyCIXqd-23">
          <mxGeometry y="116" width="240" height="30" as="geometry" />
        </mxCell>
        <mxCell id="nOUeEoo9Qma1lNyCIXqd-31" value="telefono" style="text;strokeColor=none;fillColor=none;spacingLeft=4;spacingRight=4;overflow=hidden;rotatable=0;points=[[0,0.5],[1,0.5]];portConstraint=eastwest;fontSize=12;whiteSpace=wrap;html=1;" vertex="1" parent="nOUeEoo9Qma1lNyCIXqd-23">
          <mxGeometry y="146" width="240" height="30" as="geometry" />
        </mxCell>
        <mxCell id="nOUeEoo9Qma1lNyCIXqd-33" value="Vehiculo" style="swimlane;fontStyle=0;childLayout=stackLayout;horizontal=1;startSize=26;horizontalStack=0;resizeParent=1;resizeParentMax=0;resizeLast=0;collapsible=1;marginBottom=0;align=center;fontSize=14;" vertex="1" parent="1">
          <mxGeometry y="480" width="160" height="206" as="geometry" />
        </mxCell>
        <mxCell id="nOUeEoo9Qma1lNyCIXqd-81" value="id" style="text;strokeColor=none;fillColor=none;spacingLeft=4;spacingRight=4;overflow=hidden;rotatable=0;points=[[0,0.5],[1,0.5]];portConstraint=eastwest;fontSize=12;whiteSpace=wrap;html=1;" vertex="1" parent="nOUeEoo9Qma1lNyCIXqd-33">
          <mxGeometry y="26" width="160" height="30" as="geometry" />
        </mxCell>
        <mxCell id="nOUeEoo9Qma1lNyCIXqd-34" value="tipo" style="text;strokeColor=none;fillColor=none;spacingLeft=4;spacingRight=4;overflow=hidden;rotatable=0;points=[[0,0.5],[1,0.5]];portConstraint=eastwest;fontSize=12;whiteSpace=wrap;html=1;" vertex="1" parent="nOUeEoo9Qma1lNyCIXqd-33">
          <mxGeometry y="56" width="160" height="30" as="geometry" />
        </mxCell>
        <mxCell id="nOUeEoo9Qma1lNyCIXqd-35" value="marca" style="text;strokeColor=none;fillColor=none;spacingLeft=4;spacingRight=4;overflow=hidden;rotatable=0;points=[[0,0.5],[1,0.5]];portConstraint=eastwest;fontSize=12;whiteSpace=wrap;html=1;" vertex="1" parent="nOUeEoo9Qma1lNyCIXqd-33">
          <mxGeometry y="86" width="160" height="30" as="geometry" />
        </mxCell>
        <mxCell id="nOUeEoo9Qma1lNyCIXqd-36" value="modelo" style="text;strokeColor=none;fillColor=none;spacingLeft=4;spacingRight=4;overflow=hidden;rotatable=0;points=[[0,0.5],[1,0.5]];portConstraint=eastwest;fontSize=12;whiteSpace=wrap;html=1;" vertex="1" parent="nOUeEoo9Qma1lNyCIXqd-33">
          <mxGeometry y="116" width="160" height="30" as="geometry" />
        </mxCell>
        <mxCell id="nOUeEoo9Qma1lNyCIXqd-37" value="capacidad" style="text;strokeColor=none;fillColor=none;spacingLeft=4;spacingRight=4;overflow=hidden;rotatable=0;points=[[0,0.5],[1,0.5]];portConstraint=eastwest;fontSize=12;whiteSpace=wrap;html=1;" vertex="1" parent="nOUeEoo9Qma1lNyCIXqd-33">
          <mxGeometry y="146" width="160" height="30" as="geometry" />
        </mxCell>
        <mxCell id="nOUeEoo9Qma1lNyCIXqd-38" value="estado" style="text;strokeColor=none;fillColor=none;spacingLeft=4;spacingRight=4;overflow=hidden;rotatable=0;points=[[0,0.5],[1,0.5]];portConstraint=eastwest;fontSize=12;whiteSpace=wrap;html=1;" vertex="1" parent="nOUeEoo9Qma1lNyCIXqd-33">
          <mxGeometry y="176" width="160" height="30" as="geometry" />
        </mxCell>
        <mxCell id="nOUeEoo9Qma1lNyCIXqd-39" value="Usuarios" style="swimlane;fontStyle=0;childLayout=stackLayout;horizontal=1;startSize=26;horizontalStack=0;resizeParent=1;resizeParentMax=0;resizeLast=0;collapsible=1;marginBottom=0;align=center;fontSize=14;" vertex="1" parent="1">
          <mxGeometry x="680" y="200" width="160" height="206" as="geometry" />
        </mxCell>
        <mxCell id="nOUeEoo9Qma1lNyCIXqd-91" value="id" style="text;strokeColor=none;fillColor=none;spacingLeft=4;spacingRight=4;overflow=hidden;rotatable=0;points=[[0,0.5],[1,0.5]];portConstraint=eastwest;fontSize=12;whiteSpace=wrap;html=1;" vertex="1" parent="nOUeEoo9Qma1lNyCIXqd-39">
          <mxGeometry y="26" width="160" height="30" as="geometry" />
        </mxCell>
        <mxCell id="nOUeEoo9Qma1lNyCIXqd-40" value="rol" style="text;strokeColor=none;fillColor=none;spacingLeft=4;spacingRight=4;overflow=hidden;rotatable=0;points=[[0,0.5],[1,0.5]];portConstraint=eastwest;fontSize=12;whiteSpace=wrap;html=1;" vertex="1" parent="nOUeEoo9Qma1lNyCIXqd-39">
          <mxGeometry y="56" width="160" height="30" as="geometry" />
        </mxCell>
        <mxCell id="nOUeEoo9Qma1lNyCIXqd-41" value="nombres" style="text;strokeColor=none;fillColor=none;spacingLeft=4;spacingRight=4;overflow=hidden;rotatable=0;points=[[0,0.5],[1,0.5]];portConstraint=eastwest;fontSize=12;whiteSpace=wrap;html=1;" vertex="1" parent="nOUeEoo9Qma1lNyCIXqd-39">
          <mxGeometry y="86" width="160" height="30" as="geometry" />
        </mxCell>
        <mxCell id="nOUeEoo9Qma1lNyCIXqd-42" value="apellidos" style="text;strokeColor=none;fillColor=none;spacingLeft=4;spacingRight=4;overflow=hidden;rotatable=0;points=[[0,0.5],[1,0.5]];portConstraint=eastwest;fontSize=12;whiteSpace=wrap;html=1;" vertex="1" parent="nOUeEoo9Qma1lNyCIXqd-39">
          <mxGeometry y="116" width="160" height="30" as="geometry" />
        </mxCell>
        <mxCell id="nOUeEoo9Qma1lNyCIXqd-43" value="telefono" style="text;strokeColor=none;fillColor=none;spacingLeft=4;spacingRight=4;overflow=hidden;rotatable=0;points=[[0,0.5],[1,0.5]];portConstraint=eastwest;fontSize=12;whiteSpace=wrap;html=1;" vertex="1" parent="nOUeEoo9Qma1lNyCIXqd-39">
          <mxGeometry y="146" width="160" height="30" as="geometry" />
        </mxCell>
        <mxCell id="nOUeEoo9Qma1lNyCIXqd-44" value="estado" style="text;strokeColor=none;fillColor=none;spacingLeft=4;spacingRight=4;overflow=hidden;rotatable=0;points=[[0,0.5],[1,0.5]];portConstraint=eastwest;fontSize=12;whiteSpace=wrap;html=1;" vertex="1" parent="nOUeEoo9Qma1lNyCIXqd-39">
          <mxGeometry y="176" width="160" height="30" as="geometry" />
        </mxCell>
        <mxCell id="nOUeEoo9Qma1lNyCIXqd-46" value="" style="shape=table;startSize=0;container=1;collapsible=0;childLayout=tableLayout;" vertex="1" parent="1">
          <mxGeometry x="870" y="232" width="200" height="160" as="geometry" />
        </mxCell>
        <mxCell id="nOUeEoo9Qma1lNyCIXqd-47" value="" style="shape=tableRow;horizontal=0;startSize=0;swimlaneHead=0;swimlaneBody=0;strokeColor=inherit;top=0;left=0;bottom=0;right=0;collapsible=0;dropTarget=0;fillColor=none;points=[[0,0.5],[1,0.5]];portConstraint=eastwest;" vertex="1" parent="nOUeEoo9Qma1lNyCIXqd-46">
          <mxGeometry width="200" height="40" as="geometry" />
        </mxCell>
        <mxCell id="nOUeEoo9Qma1lNyCIXqd-48" value="conducrtor" style="shape=partialRectangle;html=1;whiteSpace=wrap;connectable=0;strokeColor=inherit;overflow=hidden;fillColor=none;top=0;left=0;bottom=0;right=0;pointerEvents=1;" vertex="1" parent="nOUeEoo9Qma1lNyCIXqd-47">
          <mxGeometry width="200" height="40" as="geometry">
            <mxRectangle width="200" height="40" as="alternateBounds" />
          </mxGeometry>
        </mxCell>
        <mxCell id="nOUeEoo9Qma1lNyCIXqd-49" value="" style="shape=tableRow;horizontal=0;startSize=0;swimlaneHead=0;swimlaneBody=0;strokeColor=inherit;top=0;left=0;bottom=0;right=0;collapsible=0;dropTarget=0;fillColor=none;points=[[0,0.5],[1,0.5]];portConstraint=eastwest;" vertex="1" parent="nOUeEoo9Qma1lNyCIXqd-46">
          <mxGeometry y="40" width="200" height="40" as="geometry" />
        </mxCell>
        <mxCell id="nOUeEoo9Qma1lNyCIXqd-50" value="operador" style="shape=partialRectangle;html=1;whiteSpace=wrap;connectable=0;strokeColor=inherit;overflow=hidden;fillColor=none;top=0;left=0;bottom=0;right=0;pointerEvents=1;" vertex="1" parent="nOUeEoo9Qma1lNyCIXqd-49">
          <mxGeometry width="200" height="40" as="geometry">
            <mxRectangle width="200" height="40" as="alternateBounds" />
          </mxGeometry>
        </mxCell>
        <mxCell id="nOUeEoo9Qma1lNyCIXqd-51" value="" style="shape=tableRow;horizontal=0;startSize=0;swimlaneHead=0;swimlaneBody=0;strokeColor=inherit;top=0;left=0;bottom=0;right=0;collapsible=0;dropTarget=0;fillColor=none;points=[[0,0.5],[1,0.5]];portConstraint=eastwest;" vertex="1" parent="nOUeEoo9Qma1lNyCIXqd-46">
          <mxGeometry y="80" width="200" height="40" as="geometry" />
        </mxCell>
        <mxCell id="nOUeEoo9Qma1lNyCIXqd-52" value="administrador" style="shape=partialRectangle;html=1;whiteSpace=wrap;connectable=0;strokeColor=inherit;overflow=hidden;fillColor=none;top=0;left=0;bottom=0;right=0;pointerEvents=1;" vertex="1" parent="nOUeEoo9Qma1lNyCIXqd-51">
          <mxGeometry width="200" height="40" as="geometry">
            <mxRectangle width="200" height="40" as="alternateBounds" />
          </mxGeometry>
        </mxCell>
        <mxCell id="nOUeEoo9Qma1lNyCIXqd-53" style="shape=tableRow;horizontal=0;startSize=0;swimlaneHead=0;swimlaneBody=0;strokeColor=inherit;top=0;left=0;bottom=0;right=0;collapsible=0;dropTarget=0;fillColor=none;points=[[0,0.5],[1,0.5]];portConstraint=eastwest;" vertex="1" parent="nOUeEoo9Qma1lNyCIXqd-46">
          <mxGeometry y="120" width="200" height="40" as="geometry" />
        </mxCell>
        <mxCell id="nOUeEoo9Qma1lNyCIXqd-54" value="finanzas" style="shape=partialRectangle;html=1;whiteSpace=wrap;connectable=0;strokeColor=inherit;overflow=hidden;fillColor=none;top=0;left=0;bottom=0;right=0;pointerEvents=1;" vertex="1" parent="nOUeEoo9Qma1lNyCIXqd-53">
          <mxGeometry width="200" height="40" as="geometry">
            <mxRectangle width="200" height="40" as="alternateBounds" />
          </mxGeometry>
        </mxCell>
        <mxCell id="nOUeEoo9Qma1lNyCIXqd-55" value="ejemplo de tipos de usuarios" style="text;html=1;align=center;verticalAlign=middle;resizable=0;points=[];autosize=1;strokeColor=none;fillColor=none;" vertex="1" parent="1">
          <mxGeometry x="880" y="200" width="180" height="30" as="geometry" />
        </mxCell>
        <mxCell id="nOUeEoo9Qma1lNyCIXqd-56" value="Solicitud" style="swimlane;fontStyle=0;childLayout=stackLayout;horizontal=1;startSize=26;horizontalStack=0;resizeParent=1;resizeParentMax=0;resizeLast=0;collapsible=1;marginBottom=0;align=center;fontSize=14;" vertex="1" parent="1">
          <mxGeometry x="240" y="170" width="160" height="266" as="geometry" />
        </mxCell>
        <mxCell id="nOUeEoo9Qma1lNyCIXqd-60" value="id_servicio" style="text;strokeColor=none;fillColor=none;spacingLeft=4;spacingRight=4;overflow=hidden;rotatable=0;points=[[0,0.5],[1,0.5]];portConstraint=eastwest;fontSize=12;whiteSpace=wrap;html=1;" vertex="1" parent="nOUeEoo9Qma1lNyCIXqd-56">
          <mxGeometry y="26" width="160" height="30" as="geometry" />
        </mxCell>
        <mxCell id="nOUeEoo9Qma1lNyCIXqd-90" value="id_usuario" style="text;strokeColor=none;fillColor=none;spacingLeft=4;spacingRight=4;overflow=hidden;rotatable=0;points=[[0,0.5],[1,0.5]];portConstraint=eastwest;fontSize=12;whiteSpace=wrap;html=1;" vertex="1" parent="nOUeEoo9Qma1lNyCIXqd-56">
          <mxGeometry y="56" width="160" height="30" as="geometry" />
        </mxCell>
        <mxCell id="nOUeEoo9Qma1lNyCIXqd-75" value="id_cliente" style="text;strokeColor=none;fillColor=none;spacingLeft=4;spacingRight=4;overflow=hidden;rotatable=0;points=[[0,0.5],[1,0.5]];portConstraint=eastwest;fontSize=12;whiteSpace=wrap;html=1;" vertex="1" parent="nOUeEoo9Qma1lNyCIXqd-56">
          <mxGeometry y="86" width="160" height="30" as="geometry" />
        </mxCell>
        <mxCell id="nOUeEoo9Qma1lNyCIXqd-61" value="id_camion" style="text;strokeColor=none;fillColor=none;spacingLeft=4;spacingRight=4;overflow=hidden;rotatable=0;points=[[0,0.5],[1,0.5]];portConstraint=eastwest;fontSize=12;whiteSpace=wrap;html=1;" vertex="1" parent="nOUeEoo9Qma1lNyCIXqd-56">
          <mxGeometry y="116" width="160" height="30" as="geometry" />
        </mxCell>
        <mxCell id="nOUeEoo9Qma1lNyCIXqd-84" value="id_tcarga" style="text;strokeColor=none;fillColor=none;spacingLeft=4;spacingRight=4;overflow=hidden;rotatable=0;points=[[0,0.5],[1,0.5]];portConstraint=eastwest;fontSize=12;whiteSpace=wrap;html=1;" vertex="1" parent="nOUeEoo9Qma1lNyCIXqd-56">
          <mxGeometry y="146" width="160" height="30" as="geometry" />
        </mxCell>
        <mxCell id="nOUeEoo9Qma1lNyCIXqd-85" value="id_tdescarga" style="text;strokeColor=none;fillColor=none;spacingLeft=4;spacingRight=4;overflow=hidden;rotatable=0;points=[[0,0.5],[1,0.5]];portConstraint=eastwest;fontSize=12;whiteSpace=wrap;html=1;" vertex="1" parent="nOUeEoo9Qma1lNyCIXqd-56">
          <mxGeometry y="176" width="160" height="30" as="geometry" />
        </mxCell>
        <mxCell id="nOUeEoo9Qma1lNyCIXqd-59" value="fecha_solicitud" style="text;strokeColor=none;fillColor=none;spacingLeft=4;spacingRight=4;overflow=hidden;rotatable=0;points=[[0,0.5],[1,0.5]];portConstraint=eastwest;fontSize=12;whiteSpace=wrap;html=1;" vertex="1" parent="nOUeEoo9Qma1lNyCIXqd-56">
          <mxGeometry y="206" width="160" height="30" as="geometry" />
        </mxCell>
        <mxCell id="nOUeEoo9Qma1lNyCIXqd-68" value="estado" style="text;strokeColor=none;fillColor=none;spacingLeft=4;spacingRight=4;overflow=hidden;rotatable=0;points=[[0,0.5],[1,0.5]];portConstraint=eastwest;fontSize=12;whiteSpace=wrap;html=1;" vertex="1" parent="nOUeEoo9Qma1lNyCIXqd-56">
          <mxGeometry y="236" width="160" height="30" as="geometry" />
        </mxCell>
        <mxCell id="nOUeEoo9Qma1lNyCIXqd-69" value="Servicio" style="swimlane;fontStyle=0;childLayout=stackLayout;horizontal=1;startSize=26;horizontalStack=0;resizeParent=1;resizeParentMax=0;resizeLast=0;collapsible=1;marginBottom=0;align=center;fontSize=14;" vertex="1" parent="1">
          <mxGeometry x="440" y="80" width="160" height="146" as="geometry" />
        </mxCell>
        <mxCell id="nOUeEoo9Qma1lNyCIXqd-70" value="id" style="text;strokeColor=none;fillColor=none;spacingLeft=4;spacingRight=4;overflow=hidden;rotatable=0;points=[[0,0.5],[1,0.5]];portConstraint=eastwest;fontSize=12;whiteSpace=wrap;html=1;" vertex="1" parent="nOUeEoo9Qma1lNyCIXqd-69">
          <mxGeometry y="26" width="160" height="30" as="geometry" />
        </mxCell>
        <mxCell id="nOUeEoo9Qma1lNyCIXqd-71" value="nombre" style="text;strokeColor=none;fillColor=none;spacingLeft=4;spacingRight=4;overflow=hidden;rotatable=0;points=[[0,0.5],[1,0.5]];portConstraint=eastwest;fontSize=12;whiteSpace=wrap;html=1;" vertex="1" parent="nOUeEoo9Qma1lNyCIXqd-69">
          <mxGeometry y="56" width="160" height="30" as="geometry" />
        </mxCell>
        <mxCell id="nOUeEoo9Qma1lNyCIXqd-72" value="descripcion" style="text;strokeColor=none;fillColor=none;spacingLeft=4;spacingRight=4;overflow=hidden;rotatable=0;points=[[0,0.5],[1,0.5]];portConstraint=eastwest;fontSize=12;whiteSpace=wrap;html=1;" vertex="1" parent="nOUeEoo9Qma1lNyCIXqd-69">
          <mxGeometry y="86" width="160" height="30" as="geometry" />
        </mxCell>
        <mxCell id="nOUeEoo9Qma1lNyCIXqd-73" value="valor" style="text;strokeColor=none;fillColor=none;spacingLeft=4;spacingRight=4;overflow=hidden;rotatable=0;points=[[0,0.5],[1,0.5]];portConstraint=eastwest;fontSize=12;whiteSpace=wrap;html=1;" vertex="1" parent="nOUeEoo9Qma1lNyCIXqd-69">
          <mxGeometry y="116" width="160" height="30" as="geometry" />
        </mxCell>
        <mxCell id="nOUeEoo9Qma1lNyCIXqd-77" style="edgeStyle=orthogonalEdgeStyle;rounded=0;orthogonalLoop=1;jettySize=auto;html=1;entryX=0;entryY=0.5;entryDx=0;entryDy=0;" edge="1" parent="1" source="nOUeEoo9Qma1lNyCIXqd-76" target="nOUeEoo9Qma1lNyCIXqd-75">
          <mxGeometry relative="1" as="geometry" />
        </mxCell>
        <mxCell id="nOUeEoo9Qma1lNyCIXqd-78" style="edgeStyle=orthogonalEdgeStyle;rounded=0;orthogonalLoop=1;jettySize=auto;html=1;" edge="1" parent="1" source="nOUeEoo9Qma1lNyCIXqd-70" target="nOUeEoo9Qma1lNyCIXqd-60">
          <mxGeometry relative="1" as="geometry" />
        </mxCell>
        <mxCell id="nOUeEoo9Qma1lNyCIXqd-82" style="edgeStyle=orthogonalEdgeStyle;rounded=0;orthogonalLoop=1;jettySize=auto;html=1;entryX=0;entryY=0.5;entryDx=0;entryDy=0;" edge="1" parent="1" source="nOUeEoo9Qma1lNyCIXqd-81" target="nOUeEoo9Qma1lNyCIXqd-61">
          <mxGeometry relative="1" as="geometry" />
        </mxCell>
        <mxCell id="nOUeEoo9Qma1lNyCIXqd-88" style="edgeStyle=orthogonalEdgeStyle;rounded=0;orthogonalLoop=1;jettySize=auto;html=1;entryX=0;entryY=0.5;entryDx=0;entryDy=0;" edge="1" parent="1" source="nOUeEoo9Qma1lNyCIXqd-83" target="nOUeEoo9Qma1lNyCIXqd-84">
          <mxGeometry relative="1" as="geometry" />
        </mxCell>
        <mxCell id="nOUeEoo9Qma1lNyCIXqd-89" style="edgeStyle=orthogonalEdgeStyle;rounded=0;orthogonalLoop=1;jettySize=auto;html=1;entryX=1;entryY=0.5;entryDx=0;entryDy=0;" edge="1" parent="1" source="nOUeEoo9Qma1lNyCIXqd-87" target="nOUeEoo9Qma1lNyCIXqd-85">
          <mxGeometry relative="1" as="geometry">
            <Array as="points">
              <mxPoint x="520" y="602" />
              <mxPoint x="520" y="331" />
            </Array>
          </mxGeometry>
        </mxCell>
        <mxCell id="nOUeEoo9Qma1lNyCIXqd-92" style="edgeStyle=orthogonalEdgeStyle;rounded=0;orthogonalLoop=1;jettySize=auto;html=1;" edge="1" parent="1" source="nOUeEoo9Qma1lNyCIXqd-91" target="nOUeEoo9Qma1lNyCIXqd-90">
          <mxGeometry relative="1" as="geometry" />
        </mxCell>
      </root>
    </mxGraphModel>
  </diagram>
</mxfile>
